<svg width="111" height="23" viewBox="0 0 111 23" fill="none" xmlns="http://www.w3.org/2000/svg">
<path d="M25.2457 18.2786C26.8928 17.9066 28.6469 16.9591 30.3216 16.9941V17.0327C31.1573 17.0504 31.9343 18.0366 31.3645 18.7807C29.0647 21.7744 22.262 21.7885 18.7399 22.0622C13.5706 22.4622 8.28044 22.6728 3.10767 22.2727C2.07174 22.1921 1.68153 20.6021 2.84523 20.4125L16.8994 19.3597C19.6861 19.1421 22.5176 18.8999 25.2457 18.2786Z" fill="white"/>
<path d="M24.1234 11.0627C25.774 10.6416 27.535 9.6097 29.227 9.64481L29.2202 9.63428C30.0661 9.65532 30.7464 10.6029 30.2388 11.34C28.1118 14.4354 20.9084 14.6567 17.4485 14.955C12.217 15.4112 6.69896 15.7376 1.46057 15.1304C0.331404 15.0006 0.334856 13.5792 1.46057 13.4458L16.5058 12.3051C19.0577 12.0103 21.6371 11.7015 24.1234 11.0627Z" fill="white"/>
<path d="M24.2718 4.00464C25.8189 3.61858 27.2933 2.74116 28.8644 2.56568L28.8576 2.56216C29.8935 2.44985 30.2457 3.62911 29.9212 4.34509C28.4571 7.55293 20.3249 7.71438 17.3656 8.06535L1.12904 9.70788C-0.286735 9.80615 -0.348891 7.90039 0.818264 7.47923C5.37638 5.84372 10.967 5.94902 15.7495 5.38746C18.5984 5.05054 21.4921 4.70659 24.2718 4.00464Z" fill="white"/>
<path d="M46.0853 3.17735C46.0853 3.06267 45.9924 2.96973 45.8778 2.96973H42.0176C41.9042 2.96973 41.8117 3.06074 41.81 3.17413L41.7886 4.55019V8.29774V9.90384L41.8131 11.3043V17.6901C41.8131 20.6583 43.6074 22.487 46.5411 22.487C47.7047 22.487 48.3937 22.2481 48.6784 22.1215C48.7489 22.0901 48.7911 22.0189 48.7911 21.9419V18.5515C48.7911 18.4177 48.6666 18.3194 48.5354 18.3451C48.2904 18.3935 47.9784 18.4396 47.6518 18.4396C46.7119 18.4396 46.0853 18.1098 46.0853 16.8807V11.5119C46.0853 11.3972 46.1783 11.3043 46.2931 11.3043H48.6405C48.7551 11.3043 48.848 11.2113 48.848 11.0967V7.52452C48.848 7.40984 48.7551 7.31689 48.6405 7.31689H46.2931C46.1783 7.31689 46.0853 7.22393 46.0853 7.10925V3.17735Z" fill="white"/>
<path d="M60.0603 7.42461C60.0603 7.33355 60.0011 7.2525 59.9124 7.23134C59.6337 7.16474 59.2687 7.12256 58.9039 7.12256C57.9622 7.12256 56.58 7.4384 55.693 8.45583C55.546 8.62443 55.1743 8.52442 55.1743 8.30077V7.47908C55.1743 7.36442 55.0814 7.27146 54.9668 7.27146H51.1321C51.0175 7.27146 50.9246 7.36442 50.9246 7.47908V21.8644C50.9246 21.9789 51.0175 22.0719 51.1321 22.0719H55.1112C55.226 22.0719 55.3189 21.9789 55.3189 21.8644V15.6097C55.3189 12.6616 56.9089 11.5895 58.6725 11.5895C59.0294 11.5895 59.4059 11.6097 59.8021 11.6832C59.9344 11.7078 60.0603 11.6089 60.0603 11.4744V7.42461Z" fill="white"/>
<path d="M66.9027 22.0718C67.0173 22.0718 67.1102 21.9789 67.1102 21.8641V7.45779C67.1102 7.34311 67.0173 7.25016 66.9027 7.25016H62.3534C62.2387 7.25016 62.1457 7.34311 62.1457 7.45779V21.8641C62.1457 21.9789 62.2387 22.0718 62.3534 22.0718H66.9027ZM61.7212 2.71717C61.7212 4.17846 63.0277 5.37136 64.5954 5.37136C66.2284 5.37136 67.5349 4.17846 67.5349 2.71717C67.5349 1.25588 66.2284 0.0629883 64.5954 0.0629883C63.0277 0.0629883 61.7212 1.25588 61.7212 2.71717Z" fill="white"/>
<path d="M73.4153 22.1579C73.5299 22.1579 73.6228 22.0651 73.6228 21.9504V21.2216C73.6228 21.0116 73.9302 20.9137 74.0756 21.065C74.8819 21.903 76.2085 22.4874 77.8388 22.4874C82.0247 22.4874 84.9759 19.2235 84.9759 14.672C84.9759 10.2103 82.3559 6.91647 78.0196 6.91647C76.3488 6.91647 74.9387 7.47453 74.1327 8.18415C73.9792 8.31917 73.683 8.21398 73.683 8.00963V0.686142C73.683 0.571463 73.5901 0.478516 73.4755 0.478516H69.4038C69.289 0.478516 69.196 0.571463 69.196 0.686142V21.9504C69.196 22.0651 69.289 22.1579 69.4038 22.1579H73.4153ZM80.3986 14.7019C80.3986 17.1872 78.8026 18.415 77.0258 18.415C75.249 18.415 73.6228 17.1574 73.6228 14.7019C73.6228 12.1866 75.249 11.0188 77.0258 11.0188C78.8026 11.0188 80.3986 12.1866 80.3986 14.7019Z" fill="white"/>
<path d="M91.8195 12.8154C91.6981 12.8154 91.602 12.7116 91.6236 12.5923C91.8159 11.5276 92.7742 10.3002 94.5721 10.3002C96.601 10.3002 97.4155 11.5092 97.5598 12.5975C97.5754 12.7154 97.48 12.8154 97.3612 12.8154H91.8195ZM98.097 16.7306C97.9922 16.701 97.8828 16.7579 97.8404 16.8582C97.3901 17.9253 96.4706 18.6244 94.9029 18.6244C93.2062 18.6244 91.7296 17.5296 91.5241 15.9682C91.5087 15.8502 91.6041 15.7499 91.7231 15.7499H101.762C101.851 15.7499 101.925 15.6914 101.936 15.6027C101.966 15.349 102.002 14.828 102.002 14.3425C102.002 9.55162 99.1441 6.70703 94.5119 6.70703C90.6317 6.70703 87.0522 9.76122 87.0522 14.5521C87.0522 19.5525 90.7219 22.4871 94.8427 22.4871C98.5349 22.4871 100.885 20.441 101.672 17.9546C101.706 17.8454 101.642 17.7308 101.531 17.6997L98.097 16.7306Z" fill="white"/>
<path d="M104.078 19.3575C104.078 21.0288 105.382 22.4873 106.971 22.4873C108.559 22.4873 109.892 21.0288 109.892 19.3575C109.892 17.656 108.559 16.2583 106.971 16.2583C105.382 16.2583 104.078 17.656 104.078 19.3575Z" fill="white"/>
</svg>
